<svg width="305" height="298" viewBox="0 0 305 298" fill="none" xmlns="http://www.w3.org/2000/svg">
<path d="M0 9.66085H10.3002V63.3322H20.1526V9.66085H30.4528V0.715614H0V9.66085Z" fill="#F79E89"/>
<path fill-rule="evenodd" clip-rule="evenodd" d="M46.7899 48.3042C46.7899 58.3229 52.0744 64.0479 61.7476 64.0479C71.4209 64.0479 76.7053 58.3229 76.7053 48.3042V15.7436C76.7053 5.72494 71.4209 0 61.7476 0C52.0744 0 46.7899 5.72494 46.7899 15.7436V48.3042ZM56.6423 15.1174C56.6423 10.6448 58.6128 8.94523 61.7476 8.94523C64.8825 8.94523 66.8529 10.6448 66.8529 15.1174V48.9304C66.8529 53.403 64.8825 55.1026 61.7476 55.1026C58.6128 55.1026 56.6423 53.403 56.6423 48.9304V15.1174Z" fill="#F79E89"/>
<path fill-rule="evenodd" clip-rule="evenodd" d="M2.68702 180.308H18.2717C28.124 180.308 32.9607 174.852 32.9607 164.833V133.167C32.9607 123.148 28.124 117.692 18.2717 117.692H2.68702V180.308ZM18.0925 126.637C21.2274 126.637 23.1083 128.247 23.1083 132.72V165.28C23.1083 169.753 21.2274 171.363 18.0925 171.363H12.5394V126.637H18.0925Z" fill="#F79E89"/>
<path fill-rule="evenodd" clip-rule="evenodd" d="M51.0759 165.28C51.0759 175.299 56.3603 181.024 66.0335 181.024C75.7068 181.024 80.9912 175.299 80.9912 165.28V132.72C80.9912 122.701 75.7068 116.976 66.0335 116.976C56.3603 116.976 51.0759 122.701 51.0759 132.72V165.28ZM60.9282 132.094C60.9282 127.621 62.8987 125.921 66.0335 125.921C69.1684 125.921 71.1389 127.621 71.1389 132.094V165.906C71.1389 170.379 69.1684 172.079 66.0335 172.079C62.8987 172.079 60.9282 170.379 60.9282 165.906V132.094Z" fill="#F79E89"/>
<path d="M28.751 297.284H2.68702V234.668H12.5394V288.339H28.751V297.284Z" fill="#F79E89"/>
<path d="M107.554 297.284H97.7015V234.668H107.554V297.284Z" fill="#F79E89"/>
<path d="M188.801 269.251C183.627 264.523 177.992 259.374 177.992 249.696C177.992 239.677 182.918 233.952 192.502 233.952C202.085 233.952 207.012 239.677 207.012 249.696V252.111H197.697V249.07C197.697 244.597 195.905 242.897 192.77 242.897C189.636 242.897 187.844 244.597 187.844 249.07C187.844 254.982 191.902 258.69 196.292 262.701C201.466 267.429 207.101 272.578 207.101 282.256C207.101 292.275 202.085 298 192.412 298C182.739 298 177.723 292.275 177.723 282.256V277.963H187.038V282.883C187.038 287.355 189.009 288.965 192.144 288.965C195.278 288.965 197.249 287.355 197.249 282.883C197.249 276.97 193.191 273.262 188.801 269.251Z" fill="#F79E89"/>
<path d="M284.847 243.613H274.547V234.668H305V243.613H294.7V297.284H284.847V243.613Z" fill="#F79E89"/>
<path d="M301.454 14.1535C304.817 17.5124 304.817 22.9584 301.454 26.3174L207.173 120.478C203.81 123.837 198.357 123.837 194.993 120.478L166.709 92.2296C163.346 88.8706 163.346 83.4246 166.709 80.0657C170.072 76.7067 175.525 76.7067 178.889 80.0657L201.083 102.232L289.275 14.1535C292.638 10.7945 298.091 10.7945 301.454 14.1535Z" fill="#F79E89"/>
<path d="M127.843 22.4176C129.764 20.4989 132.37 19.421 135.087 19.421H238.796C243.552 19.421 247.408 15.5702 247.408 10.8199C247.408 6.06956 243.552 2.21868 238.796 2.21868H135.087C127.801 2.21868 120.815 5.10896 115.663 10.2537C110.512 15.3984 107.618 22.3762 107.618 29.6519V161.476C107.618 168.752 110.512 175.73 115.663 180.875C120.815 186.019 127.801 188.91 135.087 188.91H267.08C274.365 188.91 281.352 186.019 286.503 180.875C291.654 175.73 294.548 168.752 294.548 161.476V95.5641C294.548 90.8138 290.693 86.9629 285.936 86.9629C281.18 86.9629 277.324 90.8138 277.324 95.5641V161.476C277.324 164.19 276.245 166.792 274.324 168.711C272.402 170.629 269.797 171.707 267.08 171.707H135.087C132.37 171.707 129.764 170.629 127.843 168.711C125.922 166.792 124.843 164.19 124.843 161.476V29.6519C124.843 26.9385 125.922 24.3363 127.843 22.4176Z" fill="#F79E89"/>
</svg>
